<mxfile host="app.diagrams.net" agent="Mozilla/5.0 (Windows NT 10.0; Win64; x64) AppleWebKit/537.36 (KHTML, like Gecko) Chrome/128.0.0.0 Safari/537.36" version="24.7.16">
  <diagram name="페이지-1" id="f9MGgDJVDTRIdf0LsDu1">
    <mxGraphModel dx="819" dy="441" grid="1" gridSize="10" guides="1" tooltips="1" connect="1" arrows="1" fold="1" page="1" pageScale="1" pageWidth="827" pageHeight="1169" math="0" shadow="0">
      <root>
        <mxCell id="0" />
        <mxCell id="1" parent="0" />
        <mxCell id="gnS5M8NrhAZHVtkCBrbm-1" value="고객" style="whiteSpace=wrap;html=1;align=center;" vertex="1" parent="1">
          <mxGeometry x="130" y="120" width="100" height="40" as="geometry" />
        </mxCell>
        <mxCell id="gnS5M8NrhAZHVtkCBrbm-2" value="책" style="whiteSpace=wrap;html=1;align=center;" vertex="1" parent="1">
          <mxGeometry x="500" y="350" width="100" height="40" as="geometry" />
        </mxCell>
        <mxCell id="gnS5M8NrhAZHVtkCBrbm-3" value="책이미지" style="whiteSpace=wrap;html=1;align=center;" vertex="1" parent="1">
          <mxGeometry x="790" y="350" width="100" height="40" as="geometry" />
        </mxCell>
        <mxCell id="gnS5M8NrhAZHVtkCBrbm-4" value="번호" style="ellipse;whiteSpace=wrap;html=1;align=center;fontStyle=4;" vertex="1" parent="1">
          <mxGeometry x="50" y="70" width="100" height="40" as="geometry" />
        </mxCell>
        <mxCell id="gnS5M8NrhAZHVtkCBrbm-5" value="번호" style="ellipse;whiteSpace=wrap;html=1;align=center;fontStyle=4;" vertex="1" parent="1">
          <mxGeometry x="630" y="300" width="100" height="40" as="geometry" />
        </mxCell>
        <mxCell id="gnS5M8NrhAZHVtkCBrbm-6" value="" style="endArrow=none;html=1;rounded=0;entryX=0;entryY=0.5;entryDx=0;entryDy=0;" edge="1" parent="1" source="gnS5M8NrhAZHVtkCBrbm-4" target="gnS5M8NrhAZHVtkCBrbm-1">
          <mxGeometry relative="1" as="geometry">
            <mxPoint x="350" y="270" as="sourcePoint" />
            <mxPoint x="510" y="270" as="targetPoint" />
          </mxGeometry>
        </mxCell>
        <mxCell id="gnS5M8NrhAZHVtkCBrbm-7" value="" style="endArrow=none;html=1;rounded=0;exitX=0.351;exitY=0.933;exitDx=0;exitDy=0;exitPerimeter=0;" edge="1" parent="1" source="gnS5M8NrhAZHVtkCBrbm-5" target="gnS5M8NrhAZHVtkCBrbm-2">
          <mxGeometry relative="1" as="geometry">
            <mxPoint x="162" y="349" as="sourcePoint" />
            <mxPoint x="180" y="380" as="targetPoint" />
          </mxGeometry>
        </mxCell>
        <mxCell id="gnS5M8NrhAZHVtkCBrbm-8" value="번호" style="ellipse;whiteSpace=wrap;html=1;align=center;fontStyle=4;" vertex="1" parent="1">
          <mxGeometry x="920" y="380" width="100" height="40" as="geometry" />
        </mxCell>
        <mxCell id="gnS5M8NrhAZHVtkCBrbm-9" value="" style="endArrow=none;html=1;rounded=0;exitX=0;exitY=0;exitDx=0;exitDy=0;entryX=1;entryY=0.75;entryDx=0;entryDy=0;" edge="1" parent="1" source="gnS5M8NrhAZHVtkCBrbm-8" target="gnS5M8NrhAZHVtkCBrbm-3">
          <mxGeometry relative="1" as="geometry">
            <mxPoint x="875" y="87" as="sourcePoint" />
            <mxPoint x="861" y="100" as="targetPoint" />
          </mxGeometry>
        </mxCell>
        <mxCell id="gnS5M8NrhAZHVtkCBrbm-11" value="구매" style="shape=rhombus;perimeter=rhombusPerimeter;whiteSpace=wrap;html=1;align=center;" vertex="1" parent="1">
          <mxGeometry x="490" y="110" width="120" height="60" as="geometry" />
        </mxCell>
        <mxCell id="gnS5M8NrhAZHVtkCBrbm-12" value="작성" style="shape=rhombus;perimeter=rhombusPerimeter;whiteSpace=wrap;html=1;align=center;" vertex="1" parent="1">
          <mxGeometry x="110" y="330" width="120" height="60" as="geometry" />
        </mxCell>
        <mxCell id="gnS5M8NrhAZHVtkCBrbm-13" value="구성" style="shape=rhombus;perimeter=rhombusPerimeter;whiteSpace=wrap;html=1;align=center;" vertex="1" parent="1">
          <mxGeometry x="210" y="470" width="120" height="60" as="geometry" />
        </mxCell>
        <mxCell id="gnS5M8NrhAZHVtkCBrbm-15" value="" style="endArrow=none;html=1;rounded=0;exitX=1.013;exitY=0.418;exitDx=0;exitDy=0;exitPerimeter=0;entryX=0;entryY=0.5;entryDx=0;entryDy=0;entryPerimeter=0;" edge="1" parent="1" source="gnS5M8NrhAZHVtkCBrbm-1" target="gnS5M8NrhAZHVtkCBrbm-11">
          <mxGeometry relative="1" as="geometry">
            <mxPoint x="210" y="210" as="sourcePoint" />
            <mxPoint x="330" y="137" as="targetPoint" />
          </mxGeometry>
        </mxCell>
        <mxCell id="gnS5M8NrhAZHVtkCBrbm-16" value="M" style="resizable=0;html=1;whiteSpace=wrap;align=right;verticalAlign=bottom;" connectable="0" vertex="1" parent="gnS5M8NrhAZHVtkCBrbm-15">
          <mxGeometry x="1" relative="1" as="geometry" />
        </mxCell>
        <mxCell id="gnS5M8NrhAZHVtkCBrbm-17" value="" style="endArrow=none;html=1;rounded=0;exitX=0.5;exitY=0;exitDx=0;exitDy=0;entryX=0.5;entryY=1;entryDx=0;entryDy=0;" edge="1" parent="1" source="gnS5M8NrhAZHVtkCBrbm-2" target="gnS5M8NrhAZHVtkCBrbm-11">
          <mxGeometry relative="1" as="geometry">
            <mxPoint x="310" y="280" as="sourcePoint" />
            <mxPoint x="580" y="170" as="targetPoint" />
          </mxGeometry>
        </mxCell>
        <mxCell id="gnS5M8NrhAZHVtkCBrbm-18" value="N" style="resizable=0;html=1;whiteSpace=wrap;align=right;verticalAlign=bottom;" connectable="0" vertex="1" parent="gnS5M8NrhAZHVtkCBrbm-17">
          <mxGeometry x="1" relative="1" as="geometry" />
        </mxCell>
        <mxCell id="gnS5M8NrhAZHVtkCBrbm-19" value="아이디" style="ellipse;whiteSpace=wrap;html=1;align=center;" vertex="1" parent="1">
          <mxGeometry x="160" y="60" width="100" height="40" as="geometry" />
        </mxCell>
        <mxCell id="gnS5M8NrhAZHVtkCBrbm-20" value="" style="endArrow=none;html=1;rounded=0;entryX=0.5;entryY=0;entryDx=0;entryDy=0;exitX=0.456;exitY=0.961;exitDx=0;exitDy=0;exitPerimeter=0;" edge="1" parent="1" source="gnS5M8NrhAZHVtkCBrbm-19" target="gnS5M8NrhAZHVtkCBrbm-1">
          <mxGeometry relative="1" as="geometry">
            <mxPoint x="122" y="119" as="sourcePoint" />
            <mxPoint x="140" y="150" as="targetPoint" />
          </mxGeometry>
        </mxCell>
      </root>
    </mxGraphModel>
  </diagram>
</mxfile>
